<svg id="Capa_1" enable-background="new 0 0 512 512" height="512" viewBox="0 0 512 512" width="512" xmlns="http://www.w3.org/2000/svg"><g><path d="m231.188 273.302 24.812-24.812 24.812 24.812 21.212-21.213-24.811-24.812 24.811-24.811-21.212-21.213-24.812 24.811-24.812-24.811-21.212 21.213 24.811 24.811-24.811 24.812z"/><path d="m0 0v512h512v-512zm482 119.438h-198.727l48.695-89.438h150.032zm-184.19-89.438-48.694 89.438h-219.116v-89.438zm-267.81 452v-332.562h452v332.562z"/><path d="m64.426 59.649h31.707v30h-31.707z"/><path d="m129.431 59.649h31.706v30h-31.706z"/><path d="m194.435 59.649h31.707v30h-31.707z"/><path d="m153.141 316.256h-36.866l-62.262 108.507h68.875l-.074 31.717 30 .07.074-31.787h25.545v-30h-25.475zm-30.183 78.507h-17.144l17.213-29.998z"/><path d="m424.714 316.256h-36.866l-62.262 108.507h68.876l-.074 31.717 30 .07.074-31.787h25.545v-30h-25.475zm-30.182 78.507h-17.144l17.213-29.998z"/><path d="m256 308.043c-26.815 0-48.63 21.815-48.63 48.631v53.783c0 26.815 21.815 48.631 48.63 48.631s48.63-21.815 48.63-48.631v-53.783c0-26.816-21.815-48.631-48.63-48.631zm18.63 102.414c0 10.273-8.357 18.631-18.63 18.631s-18.63-8.357-18.63-18.631v-53.783c0-10.273 8.357-18.631 18.63-18.631s18.63 8.357 18.63 18.631z"/></g></svg>